<svg width="98" height="32" viewBox="0 0 98 32" fill="none" xmlns="http://www.w3.org/2000/svg">
<g clip-path="url(#clip0_8_10)">
<path d="M37.6648 27.9145C34.0284 25.572 29.0933 25.1609 21.1343 27.3691C12.6495 29.363 9.8205 30.6411 6.10528 28.0753C4.67797 26.8149 4.16625 24.7854 4.54836 21.8622C5.43463 17.0967 7.82968 12.5108 12.0839 7.42382C14.4585 4.77761 16.6612 2.50667 19.5698 1.59475C21.7989 1.02268 21.5905 2.77456 21.3208 3.02511C21.0362 3.02511 20.558 3.06995 20.1885 3.31109C19.8886 3.54368 19.0654 4.29471 19.0212 5.30497C18.9574 6.8515 20.5579 6.52961 21.2482 5.68048C21.9923 4.72361 23.092 2.89123 22.227 1.18344C21.8644 0.575579 21.238 0.155474 20.4602 0.0124261C17.7969 -0.139784 15.3164 1.12982 13.0273 2.53342C8.02098 6.01117 4.01624 10.8301 1.75019 16.1049C0.443695 19.2875 -0.737827 23.8465 1.03323 27.5571C2.40325 30.1317 5.2476 31.4993 8.64106 31.2133C11.0211 30.9633 13.899 30.194 15.8346 29.7296C17.7702 29.2644 27.6784 25.8585 30.934 31.7862C30.934 31.7862 32.0166 29.6847 34.722 29.6399C36.9463 29.4347 40.155 30.2838 42.4918 32C41.7133 30.8292 39.5061 29.1037 37.6648 27.9145Z" fill="#E61D2A"/>
<path d="M22.1445 8.02273C20.2913 6.80689 16.5667 9.13133 13.5834 13.1185C10.8554 16.6949 9.67741 20.8516 10.9593 22.7738C12.8664 25.0356 16.4065 21.7457 17.912 19.9848L18.1063 19.779C19.1301 18.6793 19.9211 17.3561 20.6866 16.0865C20.6866 16.0865 21.3903 14.9242 21.4239 14.8705C21.8587 14.7903 22.3826 14.6651 22.9728 14.4952C22.9644 14.5218 20.7145 18.3036 20.944 20.1807C21.0155 20.7534 20.9609 22.8454 23.0034 23.48C25.7256 23.9363 27.8993 21.8261 29.8169 19.9486C29.8169 19.9486 30.1437 19.636 30.3285 19.4576C30.2817 19.6448 30.2208 19.8946 30.2208 19.8946C29.4238 22.6662 30.4981 23.2477 31.1701 23.4623C33.201 24.0527 35.6272 21.1022 35.635 21.1022C35.5721 22.0316 35.3881 22.8004 36.3678 23.4173C37.2926 23.7484 38.2284 23.2438 38.9398 22.7699C41.502 20.964 43.5663 18.1376 45.2336 15.6944H44.1701C44.1575 15.6944 41.5458 19.4799 39.8498 20.3027C39.8472 20.3027 39.5386 20.4611 39.3607 20.3358C39.1406 20.1479 39.2274 19.7575 39.3634 19.4809C39.372 19.4628 45.9115 8.12058 45.9115 8.12058H42.8238C42.8238 8.12058 42.4865 8.66627 42.459 8.70206C42.4383 8.68423 42.3888 8.59041 42.3545 8.54545C40.4415 5.89924 36.1093 9.96958 32.8478 14.6898C31.5921 16.5048 29.9934 18.5484 28.3357 20.0235C28.3357 20.0235 25.88 22.2747 24.8306 20.6573C24.4471 19.9777 24.5651 18.9842 24.7814 18.3317C26.0031 14.854 28.1083 11.6978 30.5038 9.79331C31.1801 9.26619 31.9151 9.11374 32.2799 9.33729C32.6274 9.54325 32.6835 10.0524 32.4636 10.4012C31.9057 10.3833 31.4587 10.5529 31.0953 10.9284C30.3795 11.6794 30.1307 12.4037 30.3583 13.0833C31.464 14.6567 33.6691 11.5454 33.5624 9.65014C33.5243 8.97057 33.1618 8.32703 32.6207 8.01382C31.8143 7.53129 30.5842 7.65626 29.7881 8.04094C28.7224 8.44308 27.0354 9.84657 26.0506 10.9374C24.811 12.3055 22.6849 13.8252 22.02 13.655C22.2378 13.0736 24.0337 9.39934 22.1445 8.02273ZM37.0309 13.4583C37.6316 12.627 39.3798 10.4008 39.806 10.0254C41.2394 8.76436 41.8123 9.31921 41.8619 9.71232C40.5242 12.1082 38.9453 14.853 37.4608 17.3206C37.4638 17.3118 36.9962 18.0268 36.9962 18.0268C36.3406 19.0279 35.6804 19.8862 34.6036 20.4852C34.45 20.5301 34.1969 20.5481 34.0285 20.4225C33.8257 20.2884 33.7457 20.0648 33.7685 19.8322C33.833 19.0636 34.6157 16.7128 37.0309 13.4583ZM20.2334 14.8976C20.2334 14.8976 20.2065 14.9783 20.1932 15.0047C20.1898 15.0047 18.847 17.1948 18.847 17.1948C18.0366 18.2768 17.0248 19.636 15.76 20.2884C15.385 20.4136 14.8668 20.4942 14.6027 20.1636C14.0429 19.493 14.3314 18.5632 14.5658 17.8123L14.6488 17.5441C15.3209 15.7205 16.3874 14.1109 17.4253 12.6179C17.4383 12.6091 17.4674 12.6002 17.4779 12.6002C17.4803 12.6091 17.4845 12.6091 17.4863 12.627C18.1377 13.8784 19.359 14.4593 20.2724 14.7279C20.2779 14.7279 20.2837 14.7368 20.2837 14.7548C20.2839 14.7814 20.269 14.8175 20.2334 14.8976ZM21.5056 12.3142C21.4997 12.332 20.9075 13.6908 20.9075 13.6908C20.8219 13.7623 20.6865 13.7266 20.5314 13.6908L20.2655 13.6458C19.4308 13.3867 18.8012 12.8324 18.6071 12.1709C18.3393 10.8835 19.4391 9.8732 19.9237 9.50684C20.3887 9.18471 21.1115 9.01491 21.5312 9.34584C21.7901 9.64989 21.8882 10.0431 21.8882 10.4725C21.8883 11.0535 21.709 11.7061 21.5056 12.3142Z" fill="#E61D2A"/>
<path d="M60.5403 16.4621C60.2426 15.8186 59.5358 15.4072 58.7826 15.4518C56.3366 15.6755 53.9441 17.687 52.688 20.5744C52.0288 22.0587 51.669 23.2833 51.4331 25.2323C52.1937 24.3564 53.7451 22.9171 55.5057 22.1303C55.5057 22.1303 55.7452 20.2618 56.9668 18.5989C57.4291 17.9103 58.3542 16.8018 59.3929 17.0967C60.3004 17.4009 59.9815 19.9131 58.7753 22.3443C57.8828 24.1326 56.517 25.9211 55.1352 27.1545C53.9135 28.1917 52.1059 29.4432 50.5244 28.4778C49.5283 27.888 49.0203 26.6539 49.1276 25.0626C49.6036 20.5479 51.6586 16.7036 54.5996 12.323C57.6321 8.2552 60.9749 4.08017 65.478 1.8537C66.3965 1.38888 67.2471 1.28163 67.9824 1.56772C67.9824 1.56772 63.7552 3.89217 61.7402 8.19253C61.2276 9.28341 60.5147 10.7581 61.2326 12.0635C61.6078 12.7428 62.2739 12.7966 62.8102 12.7608C65.2801 12.1885 66.8759 9.88199 68.1797 7.7723C68.9356 6.17202 69.6075 4.58065 69.6075 2.81045C69.6075 2.59594 69.5964 2.30996 69.5781 2.09521C70.7582 1.46963 73.1779 2.57798 73.1779 2.57798C75.0688 3.20404 79.0951 6.28856 80.4532 6.87834C81.1157 6.1096 82.2044 4.9475 82.8174 4.36626L81.93 3.82083C80.5093 2.95362 79.0076 2.131 77.5295 1.31754C74.1727 -0.514966 71.4403 0.128568 70.0497 0.629298C69.5032 0.825852 69.0036 0.995775 69.0036 0.995775C67.9716 -0.130654 66.2791 -0.0236424 65.032 0.280534C60.5471 1.56785 56.383 4.70575 51.9187 10.1505C48.6365 14.4151 46.6006 18.0985 45.5155 21.737C44.6791 24.1864 44.4249 27.7894 46.4664 29.9262C48.2022 31.7405 50.5037 31.3475 52.1291 30.6951C55.6506 28.9607 58.8156 25.2235 60.3926 20.9232C60.7732 19.6449 61.1956 17.8391 60.5403 16.4621ZM68.6378 2.98941C68.1716 8.3357 64.0159 11.474 62.9877 11.7239C62.3645 11.8489 61.3013 11.5719 62.2504 9.32824C63.6483 6.30615 66.0348 3.74057 68.5954 2.42626C68.6577 2.64981 68.6561 2.79249 68.6378 2.98941Z" fill="#E61D2A"/>
<path d="M93.2894 3.66861C91.0541 4.93833 88.7368 5.76058 85.9317 5.47461C85.1543 6.35098 84.3974 7.25386 83.6997 8.18349C87.6368 9.18482 91.8107 6.95872 94.1384 4.84012C96.6009 2.70331 97.8637 0.0125122 97.8637 0.0125122C97.8637 0.0125122 96.0179 2.1222 93.2894 3.66861Z" fill="#E61D2A"/>
<path d="M49.389 10.8082L51.0436 8.1207H48.1113L46.4573 10.8082H49.389Z" fill="#E61D2A"/>
<path d="M85.9199 28.1634C85.6046 28.3779 85.1616 28.213 85.3273 27.7214C85.7398 26.4697 87.3799 23.9191 87.3799 23.9191L91.9482 15.8167H88.819C88.6703 16.0611 88.3522 16.6221 88.3522 16.6221C88.2074 16.381 87.7745 15.8447 87.5963 15.7289C86.8318 15.2458 85.7101 15.4742 84.9364 15.9121C81.5722 17.8793 79.1177 21.7658 77.182 24.7967C77.182 24.7967 75.1442 28.1658 74.013 28.4163C73.1299 28.4879 73.2211 27.2983 73.2593 27.0212C73.6007 25.0182 74.3937 23.1142 75.1926 21.3887C76.8174 20.2622 78.6718 18.7872 80.357 17.169C84.0142 13.6731 87.0974 9.71258 87.548 8.82753C87.548 8.82753 87.0602 8.92599 86.4843 8.94371C83.6707 12.8684 77.9131 18.5725 76.1676 19.4217C76.9408 17.5618 81.9368 8.68436 86.1883 4.43787L86.8573 3.79397C87.8918 2.78371 88.9637 1.74671 89.799 1.57678C89.8872 1.56787 90.0008 1.57678 90.0989 1.78274C90.1362 2.56933 89.8434 3.15056 89.5074 3.81205L89.0366 4.77772C89.0366 4.77772 89.7035 4.6525 90.1414 4.50909C90.6496 3.55295 91.2124 2.47978 91.005 1.20163C90.9357 0.790323 90.638 0.477474 90.2489 0.405889C88.9807 0.164502 87.5985 1.10293 86.4863 1.86312L86.4414 1.88975C80.7242 6.36884 75.8965 12.8237 71.6758 21.6388C71.3699 21.8709 70.188 22.1484 69.987 22.0141C70.4038 21.1561 70.9286 20.0025 71.1913 18.7509C71.2367 18.3932 71.279 18.0268 71.279 17.6693C71.279 16.8998 71.0943 16.1759 70.4049 15.6754C69.5967 15.273 68.5978 15.4609 67.9244 15.7647C64.9073 17.0163 62.6524 20.1099 61.0252 22.6575C60.1501 24.2761 59.2775 26.0097 59.0358 27.9948C58.8657 29.5501 59.2121 30.5514 60.0964 31.0523C61.0059 31.5169 62.1505 31.034 62.6002 30.8017C65.6567 29.1925 67.7923 25.9653 69.4758 23.0148C69.5427 23.006 70.4619 22.9794 71.1571 22.8003C71.1664 22.8003 71.1703 22.8003 71.1857 22.8097C71.1458 22.9433 70.7866 24.0164 70.7866 24.0164C69.7196 27.1453 69.2262 29.2733 70.234 30.5336C71.6742 32.3129 74.0583 30.4713 75.9979 28.0391C75.5816 30.9536 77.092 31.4097 78.2434 31.1864C79.566 30.829 81.0399 29.4161 81.7238 28.6922C81.5042 29.5413 81.5639 31.0613 82.7671 31.2132C83.5918 31.3656 84.2089 30.9171 84.9231 30.5325C87.4846 29.1377 90.5509 24.4899 91.347 23.1462H90.3032C89.1715 24.8565 87.7314 27.099 85.9199 28.1634ZM62.9273 27.8521C62.7649 27.6107 62.711 27.3467 62.7056 27.0614C62.6745 25.3084 64.5605 22.169 65.8918 20.4588C65.8946 20.4588 65.8946 20.4588 65.8946 20.4588C66.4525 21.6804 67.7159 22.4656 68.4785 22.7965C67.5313 24.9066 64.2827 29.4255 62.9273 27.8521ZM69.0131 21.8532C68.9228 21.9161 67.3297 21.3795 67.0219 19.9044C66.7607 18.6345 67.6352 17.6422 68.4813 17.1419C68.8445 16.8557 69.3915 16.7576 69.7928 16.9C70.1653 17.1507 70.2662 17.5981 70.2662 18.0801C70.2662 18.3757 70.227 18.6794 70.1924 18.9565C70.1924 18.9565 70.1858 19.0103 70.1847 19.0193C69.9192 20.0113 69.5131 20.9859 69.0131 21.8532ZM81.7904 27.2889C81.7891 27.2889 81.4882 27.5571 81.4882 27.5571C81.0584 27.9413 80.6162 28.3526 80.0824 28.1469C79.9349 28.0932 79.8312 27.8968 79.8063 27.7444C79.782 26.6447 80.2772 25.6257 80.7574 24.6336L80.8806 24.3741C82.2619 22.0676 83.8676 19.3498 86.2258 17.4637C86.6231 17.177 87.0544 16.9361 87.5095 17.124C87.6142 17.2221 87.7361 17.3921 87.7361 17.5618C87.7361 17.6157 87.6884 17.7586 87.6608 17.803C87.0022 18.8674 86.3749 19.9848 85.765 21.0575C84.573 23.1765 83.3363 25.3665 81.7904 27.2889Z" fill="#E61D2A"/>
</g>
<defs>
<clipPath id="clip0_8_10">
<rect width="97.7272" height="32" fill="white" transform="translate(0.136475)"/>
</clipPath>
</defs>
</svg>
