<svg width="71" height="32" viewBox="0 0 71 32" fill="none" xmlns="http://www.w3.org/2000/svg">
<g clip-path="url(#clip0_8_60)">
<path d="M57.1828 7.33099L59.9918 10.4268L62.6961 7.33099H68.4707L62.8272 13.6772L68.5481 20.0753H62.5405L59.7579 16.955L57.0007 20.0753H51.1997L56.8706 13.7036L51.1997 7.33099H57.1828Z" fill="#FF5900"/>
<path d="M51.1996 7.331V11.637H44.7769V15.5883H51.1996V20.0753H40.0569V0H51.1996V4.47481H44.7769V7.331H51.1996Z" fill="#FF5900"/>
<path d="M35.3567 0V8.21577H35.3048C34.2635 7.01972 32.9637 6.60374 31.4554 6.60374C28.3653 6.60374 26.0374 8.70532 25.2205 11.4823C24.2876 8.42234 21.8842 6.54621 18.3206 6.54621C15.4267 6.54621 13.1412 7.84507 11.9489 9.96174V7.331H5.96675V4.47481H12.495V0H0.634521V20.0753H5.96675V11.637H11.282C11.1235 12.2567 11.0386 12.9207 11.0386 13.6216C11.0386 17.8087 14.2382 20.7479 18.3206 20.7479C21.754 20.7479 24.0169 19.1359 25.2129 16.1976H20.6429C20.025 17.0814 19.5562 17.3427 18.3206 17.3427C16.8878 17.3427 15.6521 16.0929 15.6521 14.6111H24.9573C25.361 17.937 27.9522 20.8054 31.5073 20.8054C33.041 20.8054 34.4455 20.0508 35.3039 18.7774H35.3558V20.0772H40.056V0H35.3567ZM15.8011 11.6964C16.0973 10.4211 17.0868 9.58821 18.3215 9.58821C19.6807 9.58821 20.6193 10.3956 20.8664 11.6964C20.9702 11.6964 15.8011 11.6964 15.8011 11.6964ZM32.5034 17.0192C30.7706 17.0192 29.6934 15.4043 29.6934 13.7187C29.6934 11.9171 30.6301 10.1843 32.5034 10.1843C34.4455 10.1843 35.219 11.9171 35.219 13.7187C35.219 15.427 34.3993 17.0192 32.5034 17.0192Z" fill="#2A007C"/>
<path d="M40.0579 30.1135V22.9193H44.0327V23.456H40.7134V26.1084H43.8922V26.6451H40.7134V29.5749H44.1808V30.1125L40.0579 30.1135Z" fill="#2A007C"/>
<path d="M44.6553 30.1135L46.5937 27.5299L44.7553 25.0859H45.5004L47.0012 27.0828L48.4717 25.0859H49.2169L47.3492 27.5299L49.2961 30.1135H48.5415L46.9314 27.9761L45.4014 30.1135H44.6553Z" fill="#2A007C"/>
<path d="M50.5574 32H49.9508V26.5866C49.9508 26.0895 49.9508 25.584 49.9207 25.0859H50.5177L50.5375 25.8415C50.9139 25.2444 51.411 24.9671 52.1571 24.9671C53.7069 24.9671 54.3719 26.248 54.3719 27.5988C54.3719 28.9514 53.7069 30.2323 52.1571 30.2323C51.461 30.2323 50.9148 29.9644 50.5574 29.3872V32ZM53.7267 27.5988C53.7267 26.5263 53.2786 25.4727 52.0873 25.4727C50.9648 25.4727 50.5574 26.3971 50.5574 27.5988C50.5574 28.8014 50.9648 29.7249 52.0873 29.7249C53.2796 29.7249 53.7267 28.6722 53.7267 27.5988Z" fill="#2A007C"/>
<path d="M57.4884 25.5519C56.4848 25.5519 56.1358 26.397 56.1358 27.2705V30.1135H55.5292V26.5649C55.5292 26.0782 55.5198 25.583 55.5 25.0859H56.098L56.1367 25.8113C56.4348 25.2359 56.9328 24.9671 57.5978 24.9671C57.6874 24.9671 57.7865 24.9765 57.8761 24.9869V25.5934C57.7365 25.5717 57.627 25.5519 57.4884 25.5519Z" fill="#2A007C"/>
<path d="M58.6185 27.7082C58.6185 28.8401 59.1542 29.7739 60.2569 29.7739C61.1106 29.7739 61.5086 29.208 61.6576 28.642H62.234C61.9651 29.6947 61.319 30.2323 60.1767 30.2323C58.6468 30.2323 57.9705 29.0995 57.9705 27.6893C57.9705 26.249 58.676 24.9671 60.256 24.9671C61.8557 24.9671 62.283 26.3669 62.283 27.7082H58.6185ZM58.6373 27.2516H61.6378C61.6378 26.2678 61.1719 25.4236 60.2173 25.4236C59.3533 25.4227 58.7562 26.0782 58.6373 27.2516Z" fill="#2A007C"/>
<path d="M64.6496 30.2323C63.6167 30.2323 62.8423 29.7447 62.8423 28.642H63.4488C63.4488 29.3966 63.945 29.7739 64.6807 29.7739C65.3664 29.7739 65.9022 29.4457 65.9022 28.7722C65.9022 28.1657 65.2768 28.0062 64.6213 27.8176C63.827 27.5893 62.9621 27.3403 62.9621 26.3669C62.9621 25.2849 63.8657 24.9671 64.7109 24.9671C65.6834 24.9671 66.4097 25.3434 66.4389 26.3867H65.8324C65.8032 25.7915 65.3759 25.4538 64.7297 25.4538C64.2232 25.4538 63.6073 25.6519 63.6073 26.3074C63.6073 26.9045 64.2232 27.0734 64.8788 27.2516C65.6749 27.4695 66.5483 27.7082 66.5483 28.6826C66.5474 29.8145 65.6739 30.2323 64.6496 30.2323Z" fill="#2A007C"/>
<path d="M68.8527 30.2323C67.8188 30.2323 67.0444 29.7447 67.0444 28.642H67.6509C67.6509 29.3966 68.1471 29.7739 68.8838 29.7739C69.5695 29.7739 70.1053 29.4457 70.1053 28.7722C70.1053 28.1657 69.479 28.0062 68.8234 27.8176C68.0292 27.5893 67.1652 27.3403 67.1652 26.3669C67.1652 25.2849 68.0688 24.9671 68.914 24.9671C69.8865 24.9671 70.6128 25.3434 70.642 26.3867H70.0355C70.0063 25.7915 69.579 25.4538 68.9328 25.4538C68.4263 25.4538 67.8104 25.6519 67.8104 26.3074C67.8104 26.9045 68.4263 27.0734 69.0828 27.2516C69.878 27.4695 70.7524 27.7082 70.7524 28.6826C70.7505 29.8145 69.8761 30.2323 68.8527 30.2323Z" fill="#2A007C"/>
</g>
<defs>
<clipPath id="clip0_8_60">
<rect width="70.3065" height="32" fill="white" transform="translate(0.634521)"/>
</clipPath>
</defs>
</svg>
