<svg width="81" height="32" viewBox="0 0 81 32" fill="none" xmlns="http://www.w3.org/2000/svg">
<g clip-path="url(#clip0_8_18)">
<path d="M0.86377 29.7719H16.3739V31.9921H0.86377V29.7719Z" fill="#1F70C1"/>
<path d="M0.86377 25.5131H16.3739V27.7412H0.86377V25.5131Z" fill="#1F70C1"/>
<path d="M5.28857 21.2622H11.9414V23.4904H5.28857V21.2622Z" fill="#1F70C1"/>
<path d="M5.28857 17.0114H11.9414V19.2395H5.28857V17.0114Z" fill="#1F70C1"/>
<path d="M5.28857 12.7605H11.9414V14.9886H5.28857V12.7605Z" fill="#1F70C1"/>
<path d="M5.28857 8.50174H11.9414V10.7299H5.28857V8.50174Z" fill="#1F70C1"/>
<path d="M16.3739 4.25082H0.86377V6.47898H16.3739V4.25082Z" fill="#1F70C1"/>
<path d="M16.3739 0H0.86377V2.22816H16.3739V0Z" fill="#1F70C1"/>
<path d="M18.5862 27.7412H42.44C42.8429 27.0538 43.1432 26.3032 43.325 25.513H18.5862V27.7412Z" fill="#1F70C1"/>
<path d="M40.5832 17.0114H23.0188V19.2395H42.4401C41.9343 18.3862 41.3101 17.6356 40.5832 17.0114Z" fill="#1F70C1"/>
<path d="M23.0188 12.7605V14.9886H40.5832C41.326 14.3644 41.9501 13.6138 42.4401 12.7605H23.0188Z" fill="#1F70C1"/>
<path d="M42.4401 4.25082H18.5862V6.47898H43.325C43.1196 5.68885 42.8193 4.93829 42.4401 4.25082Z" fill="#1F70C1"/>
<path d="M35.1077 0H18.5862V2.22816H40.8044C39.319 0.853309 37.3043 0 35.1077 0Z" fill="#1F70C1"/>
<path d="M29.6637 8.50174H23.0188V10.7299H29.6637V8.50174Z" fill="#1F70C1"/>
<path d="M36.3167 10.7299H43.2697C43.4672 10.0188 43.57 9.26818 43.57 8.50174H36.3167V10.7299Z" fill="#1F70C1"/>
<path d="M23.0188 21.2622H29.6637V23.4904H23.0188V21.2622Z" fill="#1F70C1"/>
<path d="M36.3167 21.2622V23.4904H43.57C43.57 22.7239 43.4672 21.9734 43.2697 21.2622H36.3167Z" fill="#1F70C1"/>
<path d="M18.5862 31.9763L35.1077 32C37.32 32 39.319 31.1467 40.8123 29.7719H18.5862V31.9763Z" fill="#1F70C1"/>
<path d="M45.1819 29.7719H56.2593V31.9921H45.1819V29.7719Z" fill="#1F70C1"/>
<path d="M45.1819 25.5131H56.2593V27.7412H45.1819V25.5131Z" fill="#1F70C1"/>
<path d="M49.6064 21.2622H56.2593V23.4904H49.6064V21.2622Z" fill="#1F70C1"/>
<path d="M49.6064 17.0114H56.2593V19.2395H49.6064V17.0114Z" fill="#1F70C1"/>
<path d="M59.3409 4.25082H45.1819V6.47898H60.1073L59.3409 4.25082Z" fill="#1F70C1"/>
<path d="M57.8712 0H45.1819V2.22816H58.6376L57.8712 0Z" fill="#1F70C1"/>
<path d="M69.5493 29.7719H80.6348V31.9921H69.5493V29.7719Z" fill="#1F70C1"/>
<path d="M69.5493 25.5131H80.6348V27.7412H69.5493V25.5131Z" fill="#1F70C1"/>
<path d="M69.5493 21.2622H76.2021V23.4904H69.5493V21.2622Z" fill="#1F70C1"/>
<path d="M69.5493 17.0114H76.2021V19.2395H69.5493V17.0114Z" fill="#1F70C1"/>
<path d="M69.5492 14.9886H76.202V12.7605H69.5492H63.5285L62.9042 14.562L62.28 12.7605H56.2593H49.6064V14.9886H56.2593V12.9422L56.9625 14.9886H68.846L69.5492 12.9422V14.9886Z" fill="#1F70C1"/>
<path d="M76.202 8.50174H64.9981L64.2317 10.7299H76.202V8.50174Z" fill="#1F70C1"/>
<path d="M67.9454 0L67.179 2.22816H80.6348V0H67.9454Z" fill="#1F70C1"/>
<path d="M62.9044 31.9763L63.6707 29.7719H62.1379L62.9044 31.9763Z" fill="#1F70C1"/>
<path d="M61.4348 27.7412H64.3741L65.1642 25.5131H60.6526L61.4348 27.7412Z" fill="#1F70C1"/>
<path d="M59.9414 23.4904H65.8674L66.6496 21.2622H59.1592L59.9414 23.4904Z" fill="#1F70C1"/>
<path d="M58.4559 19.2395H67.3606L68.1191 17.0114H57.6895L58.4559 19.2395Z" fill="#1F70C1"/>
<path d="M49.6064 10.7299H61.5768L60.8104 8.50174H49.6064V10.7299Z" fill="#1F70C1"/>
<path d="M65.7092 6.47898H80.6347V4.25082H66.4678L65.7092 6.47898Z" fill="#1F70C1"/>
</g>
<defs>
<clipPath id="clip0_8_18">
<rect width="79.7709" height="32" fill="white" transform="translate(0.86377)"/>
</clipPath>
</defs>
</svg>
