<svg width="91" height="32" viewBox="0 0 91 32" fill="none" xmlns="http://www.w3.org/2000/svg">
<g clip-path="url(#clip0_26_258)">
<path d="M10.3429 31.9869C7.66756 31.8806 5.47872 31.1486 3.76723 29.7889C3.4406 29.5292 2.66227 28.7504 2.40115 28.4219C1.70712 27.5492 1.23526 26.6999 0.920543 25.7575C-0.0478967 22.8568 0.450525 19.0504 2.34618 14.8729C3.96925 11.2964 6.47373 7.74932 10.8432 2.83657C11.4868 2.11367 13.4035 -0.000488281 13.4159 -0.000488281C13.4205 -0.000488281 13.316 0.180463 13.1845 0.400815C12.0484 2.30379 11.0763 4.54531 10.5468 6.48586C9.69606 9.59962 9.79867 12.2718 10.8473 14.3438C11.5706 15.7712 12.8107 17.0077 14.2052 17.6912C16.6465 18.8873 20.2206 18.9863 24.5855 17.9807C24.886 17.9111 39.7773 13.9581 57.6774 9.19602C75.5775 4.43353 90.2255 0.540078 90.2278 0.543284C90.2328 0.547414 48.6407 18.3449 27.0496 27.5781C23.6303 29.0399 22.7159 29.4091 21.1084 29.9735C16.9992 31.4165 13.3183 32.1051 10.3429 31.9869Z" fill="black"/>
</g>
<defs>
<clipPath id="clip0_26_258">
<rect width="89.7893" height="32" fill="white" transform="translate(0.438477)"/>
</clipPath>
</defs>
</svg>
