<svg width="135" height="32" viewBox="0 0 135 32" fill="none" xmlns="http://www.w3.org/2000/svg">
<g clip-path="url(#clip0_8_81)">
<path d="M78.3693 17.0289C78.3693 13.8688 77.0165 11.0766 72.4415 11.0766C70.0943 11.0766 68.2296 11.7456 67.2187 12.3312L67.9597 14.8665C68.8904 14.2826 70.3756 13.8017 71.7774 13.8017C74.0936 13.7984 74.473 15.1086 74.473 15.951V16.1538C69.4171 16.1457 66.2209 17.8926 66.2209 21.4502C66.2209 23.6241 67.8436 25.6622 70.6799 25.6622C72.4104 25.6622 73.8727 24.9637 74.7462 23.8613H74.8312C74.8312 23.8613 75.4071 26.2706 78.5917 25.3497C78.4298 24.3405 78.3693 23.2773 78.3693 21.9851V17.0289ZM74.5974 20.3658C74.5974 20.6209 74.5761 20.8859 74.5009 21.1133C74.2097 22.0865 73.2054 22.9011 71.9557 22.9011C70.9007 22.9011 70.073 22.3041 70.073 21.0528C70.073 19.139 72.1863 18.6123 74.5974 18.6254" fill="#0071CE"/>
<path d="M0.963135 6.77686C0.963135 6.77686 4.26558 20.2877 4.79066 22.4763C5.40894 25.0345 6.51632 25.98 9.71249 25.3502L11.7767 16.9722C12.2985 14.8965 12.6534 13.408 12.9904 11.293H13.0476C13.2815 13.4292 13.6185 14.8965 14.0454 16.9787C14.0454 16.9787 14.8878 20.785 15.3246 22.7789C15.7498 24.7728 16.9471 26.0307 20.0828 25.3502L24.9965 6.77686H21.0299L19.3435 14.8114C18.8969 17.139 18.4912 18.9726 18.1756 21.1056H18.1183C17.8337 18.9955 17.4722 17.2372 17.0077 14.957L15.2608 6.77686H11.1225L9.25774 14.7476C8.72612 17.1815 8.22889 19.1329 7.91645 21.1988H7.86249C7.54028 19.2605 7.10355 16.7922 6.64061 14.4499C6.64061 14.4499 5.53324 8.74297 5.14233 6.77686" fill="#0071CE"/>
<path d="M36.0505 17.0289C36.0505 13.8688 34.6945 11.0766 30.1194 11.0766C27.7788 11.0766 25.9108 11.7456 24.9 12.3312L25.6409 14.8665C26.5684 14.2826 28.052 13.8017 29.4586 13.8017C31.7748 13.7984 32.1542 15.1086 32.1542 15.951V16.1538C27.0983 16.1457 23.8989 17.8926 23.8989 21.4502C23.8989 23.6241 25.5281 25.6622 28.3513 25.6622C30.0981 25.6622 31.5474 24.9637 32.4209 23.8613H32.5092C32.5092 23.8613 33.0882 26.2706 36.2696 25.3497C36.1061 24.3405 36.0505 23.2773 36.0505 21.9851V17.0289ZM32.2753 20.3658C32.2753 20.6209 32.2541 20.8859 32.1821 21.1133C31.8876 22.0865 30.8833 22.9011 29.6304 22.9011C28.5819 22.9011 27.751 22.3041 27.751 21.0528C27.751 19.139 29.8642 18.6123 32.2753 18.6254" fill="#0071CE"/>
<path d="M38.1089 6.77686V25.3437H41.8841V21.4065V6.77686H38.1089Z" fill="#0071CE"/>
<path d="M89.9558 6.77686V20.4758C89.9558 22.3667 90.3107 23.6851 91.0746 24.4931C91.7452 25.2014 92.8427 25.6626 94.1497 25.6626C95.2718 25.6626 96.3693 25.4467 96.8879 25.2586L96.842 22.3095C96.4544 22.3994 96.0111 22.4763 95.4026 22.4763C94.1137 22.4763 93.6884 21.6601 93.6884 19.9622V14.7182H96.9762V11.1703H93.6884V6.77686" fill="#0071CE"/>
<path d="M80.1982 11.3989V25.3497H84.101V18.205C84.101 17.8206 84.1255 17.4886 84.1861 17.1811C84.4772 15.6746 85.6205 14.721 87.2677 14.721C87.7273 14.721 88.0397 14.7717 88.3865 14.8256V11.1682C88.0953 11.1159 87.8974 11.0881 87.5392 11.0881C86.0785 11.0881 84.4232 12.0155 83.7247 14.0356H83.6283V11.3989" fill="#0071CE"/>
<path d="M44.0764 11.3989V25.3497H47.8793V17.1614C47.8793 16.777 47.9219 16.3845 48.0576 16.0295C48.3668 15.2002 49.134 14.2401 50.3656 14.2401C51.8966 14.2401 52.6196 15.5323 52.6196 17.397V25.3497H56.4128V17.0633C56.4128 16.7018 56.4636 16.2585 56.5698 15.9379C56.8741 14.9974 57.705 14.2401 58.8533 14.2401C60.4007 14.2401 61.1498 15.5045 61.1498 17.7028V25.3497H64.9397V17.1238C64.9397 12.8023 62.7413 11.0881 60.2452 11.0881C59.1477 11.0881 58.2743 11.358 57.4891 11.8421C56.825 12.2494 56.2427 12.8235 55.7209 13.5743H55.6637C55.0634 12.0728 53.6534 11.0881 51.8115 11.0881C49.4496 11.0881 48.3766 12.2805 47.7453 13.2881H47.688V11.3989" fill="#0071CE"/>
<path d="M117.401 10.7727C118.147 10.7727 118.775 10.3834 118.857 9.88289L119.596 1.50812C119.596 0.678817 118.62 0 117.401 0C116.176 0 115.206 0.678817 115.206 1.50812L115.952 9.88289C116.03 10.3834 116.655 10.7727 117.401 10.7727Z" fill="#FFC220"/>
<path d="M112.865 13.3933C113.234 12.739 113.213 12.0127 112.814 11.6889L105.911 6.86192C105.193 6.44318 104.118 6.94207 103.503 7.99873C102.89 9.05376 103.014 10.238 103.718 10.6486L111.36 14.1915C111.849 14.3747 112.488 14.0345 112.865 13.3867" fill="#FFC220"/>
<path d="M121.936 13.3864C122.327 14.0341 122.967 14.3744 123.443 14.201L131.085 10.6482C131.795 10.2295 131.901 9.0567 131.301 8.00168C130.687 6.94502 129.606 6.4494 128.89 6.85996L121.985 11.682C121.603 12.0108 121.575 12.7403 121.944 13.3929" fill="#FFC220"/>
<path d="M117.401 21.2338C118.147 21.2338 118.775 21.6231 118.857 22.1236L119.596 30.4984C119.596 31.3277 118.62 32 117.401 32C116.176 32 115.206 31.3277 115.206 30.4984L115.952 22.1236C116.03 21.6231 116.655 21.2338 117.401 21.2338Z" fill="#FFC220"/>
<path d="M121.936 18.6206C122.327 17.9713 122.967 17.6245 123.443 17.8126L131.085 21.3588C131.795 21.7694 131.901 22.952 131.301 24.0086C130.687 25.0571 129.606 25.556 128.89 25.1455L121.985 20.3169C121.603 19.9914 121.575 19.2651 121.944 18.6206" fill="#FFC220"/>
<path d="M112.865 18.6134C113.234 19.2661 113.213 19.9907 112.814 20.3178L105.911 25.1382C105.193 25.557 104.118 25.0565 103.503 24.008C102.89 22.9529 103.014 21.7687 103.718 21.3581L111.36 17.8119C111.849 17.6255 112.488 17.969 112.865 18.6134Z" fill="#FFC220"/>
<path d="M133.321 24.4105H133.416C133.545 24.4105 133.597 24.4514 133.612 24.5545C133.64 24.669 133.655 24.7458 133.682 24.7786H133.928C133.906 24.754 133.879 24.6919 133.864 24.5479C133.836 24.4236 133.772 24.3533 133.682 24.3287V24.3058C133.807 24.278 133.879 24.1946 133.879 24.0916C133.879 23.9983 133.836 23.9313 133.794 23.8887C133.712 23.8495 133.633 23.8184 133.46 23.8184C133.306 23.8184 133.193 23.8315 133.103 23.8528V24.7786H133.321V24.4105ZM133.327 23.9885L133.439 23.9738C133.569 23.9738 133.64 24.0343 133.64 24.1194C133.64 24.2142 133.545 24.2584 133.424 24.2584H133.327V23.9885ZM133.466 23.3604C132.93 23.3604 132.505 23.7792 132.505 24.2928C132.505 24.8195 132.93 25.2382 133.466 25.2382C134.009 25.2382 134.422 24.8195 134.422 24.2928C134.422 23.7792 134.009 23.3604 133.466 23.3604ZM133.466 23.5485C133.879 23.5485 134.184 23.8822 134.184 24.2928C134.184 24.7066 133.879 25.0501 133.466 25.0435C133.054 25.0435 132.742 24.7066 132.742 24.2928C132.742 23.8822 133.054 23.5485 133.46 23.5485" fill="#FFC220"/>
</g>
<defs>
<clipPath id="clip0_8_81">
<rect width="133.459" height="32" fill="white" transform="translate(0.963135)"/>
</clipPath>
</defs>
</svg>
